<svg viewBox="0 0 200 200" xmlns="http://www.w3.org/2000/svg">
  <!-- London 2012 Olympics Official Logo -->
  <!-- Purple jagged edge shape with yellow outline -->
  
  <g>
    <!-- Yellow outline stroke -->
    <path d="M 40 80 L 50 60 L 60 70 L 70 50 L 80 65 L 90 45 L 100 70 L 110 45 L 120 65 L 130 50 L 140 70 L 150 60 L 160 80 L 150 90 L 160 110 L 150 120 L 160 140 L 140 150 L 120 140 L 110 155 L 90 145 L 80 160 L 70 145 L 60 160 L 50 145 L 40 150 L 20 140 L 30 120 L 20 110 L 30 90 Z" 
          fill="#663399" stroke="#FFD700" stroke-width="6" stroke-linejoin="miter"/>
  </g>
</svg>